<?xml version="1.0" encoding="UTF-8"?>
<svg id="Layer_2" data-name="Layer 2" xmlns="http://www.w3.org/2000/svg" viewBox="0 0 1081.41 1626.44">
  <defs>
    <style>
      .cls-1 {
        fill: #fdc92a;
      }

      .cls-2 {
        fill: beige;
      }
    </style>
  </defs>
  <g id="Layer_1-2" data-name="Layer 1">
    <g>
      <g>
        <path class="cls-2" d="M637.64,1461.65l-96.93,164.79-96.94-164.79h193.87Z"/>
        <path class="cls-2" d="M443.77,164.79L540.7,0l96.94,164.79h-193.87Z"/>
      </g>
      <g>
        <path class="cls-1" d="M223.46,559.34c0,45.46-33.61,71.43-100.46,71.43H0v-267.39h115.36c59.59,0,93.97,25.21,93.97,68.76,0,30.56-16.43,50.8-40.87,60.74,34.38,7.64,55.01,30.18,55.01,66.47ZM28.27,386.68v97.03h85.18c42.78,0,67.61-16.43,67.61-48.51s-24.83-48.51-67.61-48.51H28.27ZM195.2,557.05c0-34.76-25.59-50.04-72.58-50.04H28.27v100.46h94.35c46.98,0,72.58-15.28,72.58-50.42Z"/>
        <path class="cls-1" d="M511.48,606.32v24.45h-189.08v-267.39h183.35v24.45h-155.09v95.12h138.28v24.07h-138.28v99.32h160.82Z"/>
        <path class="cls-1" d="M780.02,559.34h-148.98l-32.09,71.43h-29.41l122.24-267.39h27.88l122.24,267.39h-29.79l-32.09-71.43ZM769.7,536.42l-64.17-143.63-64.17,143.63h128.35Z"/>
        <path class="cls-1" d="M959.17,387.82h-93.97v-24.45h216.21v24.45h-93.97v242.94h-28.27v-242.94Z"/>
        <g>
          <path class="cls-2" d="M355.89,769.65h-41.82v-10.88h96.22v10.88h-41.82v108.12h-12.58v-108.12Z"/>
          <path class="cls-2" d="M582.5,758.77v119h-12.41v-54.91h-74.46v54.91h-12.58v-119h12.58v53.04h74.46v-53.04h12.41Z"/>
          <path class="cls-2" d="M745.1,866.89v10.88h-84.15v-119h81.6v10.88h-69.02v42.33h61.54v10.71h-61.54v44.2h71.57Z"/>
        </g>
        <path class="cls-1" d="M1.35,993.38h108.87c85.57,0,143.25,55.01,143.25,133.7s-57.68,133.7-143.25,133.7H1.35v-267.39ZM108.69,1236.32c71.05,0,116.89-45.07,116.89-109.25s-45.84-109.25-116.89-109.25H29.62v218.5h79.07Z"/>
        <path class="cls-1" d="M505.95,1236.32v24.45h-189.08v-267.39h183.35v24.45h-155.09v95.12h138.28v24.07h-138.28v99.32h160.82Z"/>
        <path class="cls-1" d="M547.21,1127.07c0-78.31,59.59-135.99,140.19-135.99,38.96,0,74.11,12.99,97.79,38.96l-17.95,17.95c-21.77-22.16-48.51-31.71-79.07-31.71-64.56,0-113.07,47.37-113.07,110.78s48.51,110.78,113.07,110.78c30.56,0,57.3-9.55,79.07-32.09l17.95,17.95c-23.68,25.98-58.83,39.34-98.17,39.34-80.22,0-139.81-57.68-139.81-135.99Z"/>
        <path class="cls-1" d="M928.43,1135.09l-54.62,55.39v70.29h-28.27v-267.39h28.27v161.58l157-161.58h32.47l-115.74,121.09,123.76,146.3h-33.61l-109.25-125.67Z"/>
      </g>
    </g>
  </g>
</svg>